# xmcd
#
# Track frame offsets:
#	183
#	12005
#	27968
#	42438
#	57513
#	72920
#	83428
#	97070
#	106888
#	123970
#
# Disc length: 1842 seconds
#
# Revision: 4
# Processed by: cddbd v1.5.2PL0 Copyright (c) Steve Scherf et al.
# Submitted via: audiograbber 1.83.01
#
DISCID=7907300a
DTITLE=Emmylou Harris - Roses In The Snow
DYEAR=1980
DGENRE=CountryRock
TTITLE0=Roses In The Snow
TTITLE1=Wayfaring Stranger
TTITLE2=Green Pastures [with Ricky Skaggs]
TTITLE3=The Boxer
TTITLE4=Darkest Hour Is Just Before Dawn [with Ricky Skaggs]
TTITLE5=I'll Go Stepping Too
TTITLE6=You're Learning [with Ricky Skaggs]
TTITLE7=Jordan
TTITLE8=Miss The Mississippi And You
TTITLE9=Gold Watch And Chain [with Ricky Skaggs and Linda Ronstadt]
EXTD=
EXTT0=
EXTT1=
EXTT2=
EXTT3=
EXTT4=
EXTT5=
EXTT6=
EXTT7=
EXTT8=
EXTT9=
PLAYORDER=
